<svg width="400" height="400" viewBox="0 0 400 400" fill="none" xmlns="http://www.w3.org/2000/svg">
<g clip-path="url(#clip0)">
<path fill-rule="evenodd" clip-rule="evenodd" d="M188.923 362.618C188.939 362.618 188.955 362.618 188.97 362.618C189.128 362.665 189.302 362.697 189.476 362.714C192.112 362.904 194.765 363 197.401 363C197.464 363 197.528 363 197.59 363C200.228 363 202.864 362.904 205.517 362.714C205.69 362.697 205.848 362.665 206.005 362.618C206.022 362.633 206.037 362.633 206.053 362.618C218.857 361.551 231.377 358.098 242.997 352.289C247.159 350.21 251.845 347.796 256 344.846C251.366 342.259 247.236 339.087 243.818 335.263C236.778 327.386 233.587 317.81 232.483 308.002C222.635 317.022 209.887 321.858 197.502 323.67C185.118 321.858 172.369 317.023 162.521 308C161.418 317.809 158.227 327.386 151.186 335.263C147.77 339.086 143.635 342.259 139 344.846C143.156 347.796 147.848 350.21 152.01 352.289C163.614 358.098 176.134 361.535 188.923 362.618Z" fill="#FBDDCE"/>
<path fill-rule="evenodd" clip-rule="evenodd" d="M197 121V326C176.724 320.664 158.396 311.594 143.353 299.344C128.722 287.435 117.67 272.913 109.376 257.574C94.2163 229.586 87.9569 198.667 85.9991 168.308C109.155 137.817 153.797 121.817 197 121Z" fill="#FCD6C3"/>
<path fill-rule="evenodd" clip-rule="evenodd" d="M79.254 209.991C78.0078 204.151 81.1713 195.022 92.6684 200.708C93.7269 210.267 95.5873 219.811 98.4266 229.264C87.881 224.678 80.8542 217.494 79.254 209.991Z" fill="#FCD6C3"/>
<path fill-rule="evenodd" clip-rule="evenodd" d="M197 121V326C217.792 320.664 236.585 311.594 252.011 299.344C267.014 287.435 278.347 272.913 286.852 257.574C302.397 229.586 308.815 198.667 310.823 168.308C287.078 137.817 241.301 121.817 197 121Z" fill="#FCD6C3"/>
<path fill-rule="evenodd" clip-rule="evenodd" d="M317.74 209.991C319.017 204.151 315.773 195.022 303.984 200.708C302.899 210.267 300.991 219.811 298.08 229.264C308.893 224.678 316.099 217.494 317.74 209.991Z" fill="#FCD6C3"/>
<path fill-rule="evenodd" clip-rule="evenodd" d="M157.918 246.981C154.868 246.981 151.723 246.582 148.567 245.795C140.733 243.832 134.715 239.424 131.168 233.047C126.694 224.996 126.432 215.764 126.585 206.215L126.26 205.908L126.627 205.501C131.558 200.015 139.335 197.077 149.116 197.003C153.537 196.969 158.332 197.296 163.429 197.985C168.843 198.715 173.361 199.894 177.242 201.591C180.429 202.98 183.276 204.763 185.705 206.892L185.849 207.019L185.886 207.208C187.108 213.487 186.457 220.137 183.951 226.976C180.742 235.727 176.271 241.401 170.283 244.321C166.656 246.086 162.496 246.981 157.918 246.981ZM127.713 205.979V205.983C127.555 215.468 127.774 224.625 132.149 232.5C135.543 238.599 141.315 242.82 148.84 244.703C151.906 245.469 154.961 245.857 157.918 245.857C162.325 245.857 166.319 245.001 169.791 243.311C175.505 240.524 179.791 235.055 182.895 226.589C185.305 220.015 185.951 213.631 184.819 207.611C182.51 205.614 179.811 203.936 176.792 202.621C173.008 200.966 168.588 199.815 163.279 199.099C158.491 198.452 153.953 198.124 149.792 198.124L149.123 198.127C142.622 198.176 133.673 199.586 127.713 205.979Z" fill="#565656"/>
<path fill-rule="evenodd" clip-rule="evenodd" d="M220.889 244.321C214.902 241.401 210.431 235.727 207.222 226.976C204.716 220.137 204.066 213.487 205.288 207.208L205.324 207.019L205.469 206.892C207.896 204.763 210.744 202.98 213.932 201.591C217.812 199.894 222.33 198.715 227.744 197.985C232.841 197.296 237.635 196.969 242.058 197.003C251.838 197.077 259.614 200.015 264.547 205.501L264.913 205.908L264.588 206.215C264.741 215.764 264.478 224.996 260.006 233.047C256.457 239.424 250.44 243.832 242.605 245.795C239.45 246.582 236.304 246.981 233.255 246.981C228.677 246.981 224.517 246.086 220.889 244.321ZM242.049 198.127L241.38 198.124C237.22 198.124 232.683 198.452 227.893 199.099C222.585 199.815 218.166 200.966 214.381 202.621C211.363 203.936 208.663 205.614 206.354 207.611C205.221 213.631 205.868 220.015 208.278 226.589C211.382 235.055 215.668 240.524 221.382 243.311C224.854 245.001 228.849 245.857 233.255 245.857C236.213 245.857 239.268 245.469 242.333 244.703C249.859 242.82 255.63 238.599 259.023 232.5C263.399 224.625 263.619 215.468 263.46 205.983V205.979C257.5 199.586 248.55 198.176 242.049 198.127Z" fill="#565656"/>
<path fill-rule="evenodd" clip-rule="evenodd" d="M277.153 201.678C271.595 200.769 266.088 199.521 260.518 198.644C254.505 197.701 248.436 197.048 242.344 197.003C236.538 196.958 230.716 197.447 225.045 198.728C219.324 200.015 214.126 202.303 208.894 204.888C204.96 206.832 200.61 208.822 196.154 209.125C191.697 208.822 187.348 206.832 183.413 204.888C178.181 202.303 172.983 200.015 167.262 198.728C161.591 197.447 155.769 196.958 149.964 197.003C143.872 197.048 137.803 197.701 131.789 198.644C126.22 199.521 120.712 200.769 115.154 201.678C115.154 204.186 115.154 206.742 115.031 209.255C116.807 209.524 118.577 209.94 120.302 210.3C122.842 210.823 125.377 211.435 127.878 212.115C128.08 207.692 132.526 204.545 136.487 203.208C147.34 199.554 159.894 199.932 170.831 202.971C175.489 204.269 180.536 206.124 183.587 210.092C185.189 212.177 186.15 214.958 185.954 217.605C187.139 217.336 188.421 217.381 189.64 217.6C190.939 215.734 193.686 215.127 196.154 215.116C198.621 215.127 201.369 215.734 202.667 217.6C203.887 217.381 205.168 217.336 206.353 217.605C206.157 214.958 207.118 212.177 208.72 210.092C211.771 206.124 216.818 204.269 221.476 202.971C232.413 199.932 244.968 199.554 255.82 203.208C259.782 204.545 264.227 207.692 264.43 212.115C266.931 211.435 269.465 210.823 272.005 210.3C273.73 209.94 275.501 209.524 277.277 209.255C277.153 206.742 277.153 204.186 277.153 201.678Z" fill="#565656"/>
<path fill-rule="evenodd" clip-rule="evenodd" d="M192.15 264.09C189.802 264.487 187.714 265.506 185.811 266.545C184.013 267.53 179.882 270.675 176.932 271.139C177.037 271.21 177.141 271.281 177.24 271.352C183.251 275.679 188.703 278.997 196.966 280V265.044C195.536 264.284 193.926 263.788 192.15 264.09Z" fill="#E53D3C"/>
<path fill-rule="evenodd" clip-rule="evenodd" d="M201.782 264.09C204.13 264.487 206.218 265.506 208.121 266.545C209.919 267.53 214.05 270.675 217 271.139C216.895 271.21 216.791 271.281 216.692 271.352C210.682 275.679 205.229 278.997 196.966 280V265.044C198.396 264.284 200.006 263.788 201.782 264.09Z" fill="#CC2D29"/>
<path fill-rule="evenodd" clip-rule="evenodd" d="M357.953 403.518C357.923 398.001 357.263 392.616 355.703 387.246C353.492 379.703 349.316 372.595 342.587 367.14C330.581 357.391 312.863 354.827 297.154 351.811C288.555 350.158 279.964 348.381 271.713 345.701C267.867 344.45 264.243 342.873 260.876 341C256.695 343.958 251.978 346.378 247.79 348.462C236.096 354.286 223.496 357.748 210.609 358.817C210.593 358.833 210.578 358.833 210.561 358.817C210.403 358.864 210.244 358.897 210.07 358.913C207.399 359.104 204.746 359.2 202.092 359.2C202.03 359.2 201.966 359.2 201.902 359.2C199.249 359.2 196.579 359.104 193.926 358.913C193.751 358.897 193.576 358.864 193.417 358.817C193.402 358.817 193.385 358.817 193.369 358.817C180.499 357.731 167.899 354.286 156.22 348.462C152.031 346.378 147.309 343.958 143.127 341C139.758 342.873 136.135 344.449 132.294 345.701C124.045 348.381 115.454 350.158 106.839 351.811C91.1461 354.827 73.4278 357.391 61.414 367.14C54.6928 372.595 50.5094 379.703 48.3052 387.246C46.7452 392.616 46.0858 398.001 46.0467 403.518C46.0314 406.001 46.0696 408.483 46 410.966C46 410.976 46 410.989 46 411H358C357.938 408.506 357.977 406.012 357.953 403.518Z" fill="#17016B"/>
<path fill-rule="evenodd" clip-rule="evenodd" d="M319.015 173.985C308.254 147.685 299.248 120.428 284.618 98.6689C274.618 83.7953 261.993 71.4899 244.385 63.8137C239.268 61.5825 194.004 45.5533 194 51.1964C193.997 45.5533 148.733 61.5825 143.616 63.8137C126.008 71.4899 113.382 83.7953 103.383 98.6689C88.7531 120.428 79.7464 147.685 68.9859 173.985C62.6514 189.468 49.2536 200.179 45.2552 216.748C43.0182 226.032 43.407 238.546 49.4273 245.955C54.3695 252.044 61.849 254.63 66.4251 261.119C71.3192 268.054 67.7022 275.863 64.5222 282.581C62.539 286.749 60.3492 291.327 60.4445 296.224C60.5238 300.675 62.1266 305.49 64.4504 309.048C68.6546 315.483 75.4752 317.814 82.2015 318.414C89.3167 319.061 96.4393 318.287 103.562 318.132C109.987 317.986 116.864 318.123 122.622 321.818C127.73 325.086 131.656 331.612 127.706 337.965C124.034 343.872 117.308 345.783 111.328 344.426C113.192 346.739 115.42 348.559 118.173 349.278C120.996 350.024 123.947 350.024 126.834 349.988C132.148 349.906 137.502 347.322 141.984 344.199C146.75 340.895 151.677 336.381 154.024 330.401C154.854 328.285 155.395 325.772 155.54 323.219C155.735 319.79 155.214 316.287 153.691 313.563C150.772 308.339 145.22 306.437 141.857 301.704C138.002 296.251 139.16 289.489 142.198 283.982C145.83 277.393 150.645 270.821 146.576 262.857C140.992 251.947 127.021 252.462 119.961 242.941C113.095 233.681 114.263 222.639 120.512 213.798C121.705 213.654 122.94 213.446 124.243 213.134C129.634 211.846 135.438 210.778 140.587 208.548C152.23 203.506 162.692 196.613 171.728 186.73C180.213 177.451 187.368 166.455 193.069 154.725C193.392 154.061 193.687 153.379 194 152.708C194.432 151.783 194.869 150.863 195.284 149.927C195.362 149.752 195.446 149.584 195.524 149.408C195.478 149.611 195.417 149.809 195.369 150.01C194.969 151.688 194.503 153.351 194 154.999C193.027 158.189 191.907 161.311 190.7 164.262C185.124 177.906 177.13 189.998 166.871 199.438L166.945 199.548C177.213 193.721 186.416 185.993 194 176.322C195.962 173.82 197.82 171.196 199.554 168.433C201.54 165.268 203.275 161.953 204.819 158.524C206.534 154.713 208.014 150.763 209.306 146.703C210.767 142.113 211.984 136.878 212.628 131.63C219.936 137.716 227.991 142.662 235.684 148.08C247.85 156.65 258.062 166.789 263.137 182.506C266.2 191.988 266.85 202.166 266.343 212.273C266.072 217.668 265.477 223.042 264.732 228.28L264.927 228.41C267.105 225.817 269.093 222.996 270.89 220.014C272.373 217.553 273.729 214.985 274.933 212.331L274.985 212.445C275.642 211.248 277.784 210.409 279.277 209.844C279.276 209.848 279.276 209.85 279.276 209.853C279.339 209.825 279.399 209.8 279.461 209.775C279.695 209.686 279.912 209.604 280.097 209.53C280.272 209.472 280.442 209.426 280.61 209.382C281.146 209.339 281.705 209.569 282.28 209.471C282.524 209.384 282.765 209.317 283.002 209.265C287.245 210.103 288.397 216.906 287.671 221.735C286.416 230.068 280.986 238.046 272.831 243.258C270.452 252.696 267.602 261.965 264.163 270.958C257.52 288.354 248.672 304.823 236.957 318.328C235.497 320.013 233.996 321.642 232.46 323.219C232.606 325.772 233.147 328.285 233.977 330.401C236.324 336.381 241.249 340.895 246.017 344.199C250.499 347.322 255.852 349.906 261.167 349.988C264.053 350.024 267.004 350.024 269.828 349.278C272.58 348.559 274.809 346.739 276.673 344.426C270.693 345.783 263.966 343.872 260.294 337.965C256.344 331.612 260.27 325.086 265.378 321.818C271.137 318.123 278.013 317.986 284.439 318.132C291.561 318.287 298.684 319.061 305.799 318.414C312.525 317.814 319.346 315.483 323.55 309.048C325.874 305.49 327.476 300.675 327.555 296.224C327.651 291.327 325.462 286.749 323.479 282.581C320.299 275.863 316.681 268.054 321.575 261.119C326.152 254.63 333.631 252.044 338.572 245.955C344.593 238.546 344.982 226.032 342.745 216.748C338.747 200.179 325.348 189.468 319.015 173.985Z" fill="#DEC364"/>
<circle cx="159" cy="222" r="7" fill="#7D9BA1"/>
<circle cx="235" cy="222" r="7" fill="#7D9BA1"/>
</g>
<defs>
<clipPath id="clip0">
<rect width="400" height="400" fill="white"/>
</clipPath>
</defs>
</svg>
